<?xml version="1.0" encoding="UTF-8"?>
<svg xmlns="http://www.w3.org/2000/svg" xmlns:xlink="http://www.w3.org/1999/xlink" width="180px" height="224px" viewBox="0 0 180 223" version="1.1">
<g id="surface1">
<path style=" stroke:none;fill-rule:evenodd;fill:rgb(10.588235%,61.56863%,42.745098%);fill-opacity:1;" d="M 127.210938 126.59375 C 127.09375 124.488281 126.574219 121.941406 126.539062 121.078125 C 125.25 87.535156 112.941406 78.183594 109.550781 76.433594 C 100.625 70.066406 89.746094 76.855469 83.601562 86.085938 C 82.078125 87.097656 81 89.027344 79.808594 90.25 C 75.046875 72.535156 64.90625 65.910156 62.160156 65.101562 C 61.488281 64.925781 56.832031 62.785156 54.457031 64.1875 C 50.039062 64.078125 45.894531 66.71875 42.230469 68.453125 C 40.796875 69.148438 40.683594 70.46875 39.253906 70.949219 C 32.085938 76.679688 16.664062 90.539062 8.484375 119.609375 C 8.007812 122.554688 6.695312 126.515625 7.328125 129.386719 C 8.398438 129.492188 9.214844 132.332031 10.546875 131.820312 C 10.761719 133.875 15.265625 131.207031 14.535156 133.34375 C 16.582031 134.832031 18.742188 133.40625 21.035156 133 C 29.242188 130.835938 32.949219 126.554688 33.691406 125.605469 C 37.519531 123.878906 37.167969 122.117188 38.785156 119.027344 C 40.347656 118.359375 39.183594 116.957031 40.421875 115.992188 C 40.394531 114.730469 42.792969 109.574219 43.988281 107.15625 C 44.398438 107.386719 45.3125 106.382812 46.023438 104.820312 C 46.023438 104.820312 49.871094 94.761719 56.238281 94.304688 C 60.21875 94.019531 62.53125 97.097656 63.929688 99.179688 C 70.121094 108.367188 68.824219 111.503906 72.851562 115.191406 C 75.453125 117.574219 80.257812 116.386719 82.453125 115.222656 C 83.273438 113.492188 84.742188 114.363281 85.765625 112.691406 C 86.8125 111.746094 88.410156 111.390625 88.761719 109.574219 C 90.367188 107.945312 91.683594 104.691406 93.785156 101.625 C 96.511719 97.660156 100.289062 94.953125 103.960938 94.917969 C 107.015625 94.886719 107.515625 97.238281 109.273438 98.640625 C 113.238281 96.394531 119.585938 115.671875 120.226562 115.78125 C 120.714844 115.914062 121.023438 116.484375 121.023438 116.484375 C 121.574219 117.160156 122.695312 121.714844 123.003906 122.585938 C 123.074219 122.796875 123.171875 123.046875 123.398438 123.078125 C 123.410156 122.902344 123.683594 122.796875 123.652344 122.660156 C 123.511719 122.382812 123.933594 121.820312 123.898438 121.496094 C 123.882812 121.3125 123.742188 121.226562 123.726562 121.042969 C 123.664062 120.632812 123.800781 121.15625 123.746094 120.703125 C 123.714844 120.605469 123.683594 120.554688 123.652344 120.460938 C 123.667969 120.378906 123.652344 120.238281 123.707031 120.160156 C 123.761719 120.125 123.839844 120.183594 123.925781 120.191406 C 123.917969 120.242188 123.945312 120.339844 123.9375 120.378906 C 124.113281 120.671875 124.605469 120.964844 124.652344 121.234375 C 124.742188 121.5625 124.628906 121.632812 124.773438 121.882812 C 124.699219 122.324219 125.203125 122.765625 125.222656 123.210938 C 125.214844 123.257812 125.429688 123.355469 125.46875 123.410156 C 125.46875 123.988281 125.703125 124.0625 126.027344 124.535156 C 126.148438 124.734375 126.175781 124.910156 126.25 125.089844 C 126.28125 125.238281 126.261719 125.410156 126.300781 125.539062 C 126.433594 125.957031 126.875 126.433594 126.917969 126.882812 C 126.90625 126.964844 127.101562 126.945312 127.191406 126.957031 C 127.207031 126.824219 127.21875 126.734375 127.210938 126.59375 "/>
<path style=" stroke:none;fill-rule:evenodd;fill:rgb(100%,70.19608%,0%);fill-opacity:1;" d="M 175.480469 104.441406 C 175.757812 106.371094 175.886719 108.757812 175.886719 108.757812 C 175.640625 109.199219 175.222656 111.289062 176.121094 111.109375 C 176.179688 115.132812 175.757812 116.121094 175.71875 119.355469 C 175.6875 119.996094 175.75 120.640625 175.894531 121.265625 C 176.40625 121.460938 175.769531 122.207031 175.75 122.539062 C 175.730469 122.625 175.640625 123.742188 175.445312 124.449219 L 175.355469 125.035156 C 175.394531 128.519531 175.039062 131.996094 174.289062 135.398438 C 173.820312 138.636719 173.164062 141.84375 172.335938 145.007812 C 172.046875 146.84375 171.757812 148.621094 171.171875 150.066406 C 171.089844 151.390625 167.464844 159.273438 167.070312 160.359375 C 166.640625 161.8125 166.488281 162.941406 165.480469 164.703125 C 165.433594 164.789062 164.75 166.101562 164.308594 166.726562 C 164.21875 166.914062 164.078125 167.179688 163.988281 167.355469 C 162.171875 172.257812 160.402344 173.578125 158.105469 176.449219 C 156.113281 179.28125 154.175781 182.914062 152.039062 184.96875 C 150.945312 186.355469 150.371094 187.667969 149.230469 188.398438 C 148.550781 189.464844 143.738281 193.789062 142.925781 194.363281 C 141.945312 195.195312 140.929688 195.882812 140.027344 197.4375 C 139.269531 197.550781 138.167969 199.800781 137.535156 198.859375 C 131.714844 202.929688 134.390625 201.613281 130.011719 204.648438 C 129.453125 205.003906 128.6875 204.828125 128.351562 206.082031 C 127.035156 206.683594 124.914062 208.976562 123.3125 208.851562 C 122.300781 209.511719 119.582031 211.078125 118.578125 211.714844 C 118.234375 211.625 118.117188 212.015625 117.941406 212.238281 C 117.15625 212.042969 114.183594 214.546875 113.421875 214.074219 C 112.058594 214.824219 110.390625 215.664062 109.023438 216.363281 C 108.882812 216.363281 105.273438 217.90625 102.960938 218.628906 L 102.445312 218.910156 C 100.777344 219.203125 99.4375 220.367188 97.8125 220.296875 C 97.101562 220.628906 96.214844 220.496094 95.539062 220.980469 C 93.589844 221.488281 91.722656 222.515625 90.472656 222.753906 C 89.125 222.984375 87.757812 223.058594 86.394531 222.972656 C 87.917969 222.644531 88.457031 222.367188 89.980469 221.734375 C 91.285156 220.894531 91.527344 220.996094 91.714844 220.898438 C 93.34375 219.96875 94.980469 219.789062 96.671875 218.898438 C 99.785156 218.15625 101.898438 215.457031 104.953125 215.324219 C 106.007812 213.953125 107.707031 213.566406 109.042969 212.867188 C 110.949219 211.984375 113.535156 209.882812 114.605469 209.226562 C 115.671875 208.554688 117.921875 206.933594 118.375 206.335938 C 118.707031 205.90625 120.21875 204.65625 120.21875 204.65625 C 120.769531 204.019531 120.230469 203.421875 118.730469 204.097656 C 118.164062 204.367188 116.5625 205.421875 116.101562 205.480469 C 116.101562 205.480469 115.496094 205.324219 115.207031 205.351562 C 114.917969 205.390625 114.242188 205.820312 113.949219 205.859375 C 113.785156 206.425781 113.722656 207 113.332031 207.425781 C 113.238281 207.523438 112.210938 207.945312 112.152344 208.128906 C 112.042969 208.296875 111.929688 208.324219 111.828125 208.492188 C 111.714844 208.652344 111.523438 208.589844 111.414062 208.746094 C 111.089844 208.707031 110.878906 208.894531 110.554688 208.851562 C 110.476562 208.898438 110.4375 208.875 110.347656 208.980469 L 110.203125 208.933594 C 110.054688 208.957031 109.941406 208.894531 109.789062 208.988281 C 109.640625 209.089844 109.617188 209.398438 109.445312 209.625 C 107.863281 210.421875 107.8125 210.882812 107.183594 211.070312 C 106.996094 211.707031 106.152344 211.410156 105.636719 211.792969 C 105.40625 211.929688 105 211.714844 104.78125 211.988281 C 104.414062 212.460938 103.769531 212.597656 103.429688 213.085938 C 102.832031 212.839844 102.488281 213.484375 101.90625 213.53125 C 101.347656 214.257812 100.84375 213.984375 100.160156 214.488281 C 99.660156 213.855469 99.394531 215.011719 98.898438 214.378906 C 97.613281 215.078125 95.832031 215.289062 94.722656 216.460938 C 92.769531 216.714844 91.6875 217.527344 89.664062 217.820312 C 88.535156 216.808594 87.421875 218.964844 86.5 219.402344 C 86.308594 219.222656 86.183594 219.148438 85.957031 219.222656 C 84.730469 220.878906 83.355469 219.207031 81.8125 220.378906 C 81.027344 219.671875 79.613281 220.746094 79.335938 220.503906 C 79.292969 220.265625 79.09375 220.375 78.523438 220.726562 C 78.257812 220.859375 77.96875 220.921875 77.898438 221.222656 C 77.527344 220.976562 77.164062 221.519531 76.867188 221.109375 C 76.328125 221.4375 76.433594 221.960938 75.707031 222.019531 C 75.238281 221.8125 73.859375 221.960938 73.4375 222.199219 C 70.382812 221.90625 71.527344 223.003906 70.308594 222.695312 C 70.382812 222.554688 69.546875 222.78125 69.625 222.644531 C 69.066406 222.195312 68.9375 222.964844 68.082031 222.828125 C 68.082031 222.828125 67.152344 223.0625 67.394531 222.71875 C 67.289062 222.523438 66.769531 222.75 66.636719 222.734375 C 66.253906 222.613281 65.367188 222.652344 63.738281 222.175781 C 70.957031 221.734375 78.261719 218.371094 83.8125 216.59375 C 84.160156 215.941406 84.613281 216.082031 85.136719 216.058594 C 86.488281 215.398438 96.117188 210.871094 97.523438 210.269531 C 97.71875 209.4375 98.199219 210.28125 98.53125 209.683594 C 99.070312 209.226562 99.644531 209.410156 99.992188 208.824219 C 100.117188 208.667969 101.75 208.1875 101.597656 207.878906 C 102.320312 207.65625 103.152344 207.210938 103.726562 206.644531 C 104.152344 205.863281 106.347656 205.128906 107.039062 204.835938 C 107.234375 204.558594 111.523438 202.300781 111.507812 201.78125 C 118.234375 197.332031 124.460938 192.171875 130.085938 186.394531 C 130.378906 186.101562 131.335938 185.601562 131.621094 185.304688 C 131.957031 184.960938 132.964844 184.4375 133.292969 184.082031 C 133.609375 183.742188 133.113281 183.285156 133.4375 182.933594 C 134.863281 181.378906 136.242188 179.78125 137.574219 178.144531 C 137.824219 177.839844 139.402344 176.753906 139.644531 176.449219 C 141.21875 174.488281 141.375 173.25 142.789062 171.199219 C 144.199219 169.140625 145.527344 167.039062 146.765625 164.894531 C 147.757812 163.179688 148.683594 161.4375 149.546875 159.671875 C 152.320312 153.988281 154.386719 148.09375 155.523438 142.089844 C 152.390625 148.894531 148.308594 155.433594 143.875 161.410156 C 143.375 162.085938 142.488281 162.402344 141.984375 163.058594 C 141.496094 163.6875 141.382812 164.664062 140.894531 165.277344 L 140.007812 166.375 C 132.203125 175.941406 116.675781 186.832031 111.625 190.382812 C 109.710938 191.402344 104.785156 194.066406 104.375 194.398438 C 103.964844 194.726562 103.507812 195.289062 102.960938 195.308594 C 102.402344 195.339844 101.644531 195.894531 101.140625 196.292969 C 100.484375 196.636719 98.664062 197.222656 96.382812 197.992188 C 99.742188 196.085938 104.164062 193.398438 106.941406 190.515625 C 106.851562 189.113281 102.582031 193.113281 97.617188 195.851562 C 96.667969 196.304688 95.59375 196.984375 94.667969 197.40625 C 94.394531 197.320312 94.148438 197.84375 93.972656 198.007812 C 93.308594 197.726562 92.15625 197.945312 91.738281 198.335938 C 91.148438 198.285156 89.632812 199.894531 89.023438 199.414062 C 87.769531 199.882812 86.566406 200.328125 85.304688 200.789062 C 85.191406 200.789062 81.953125 201.710938 79.921875 202.125 L 79.460938 202.300781 C 78.039062 202.417969 76.789062 203.246094 75.453125 203.074219 C 74.824219 203.292969 73.886719 203.246094 73.273438 203.585938 C 71.707031 203.863281 67.992188 204.445312 65.402344 204.328125 C 66.792969 204.085938 70.90625 203.46875 71.972656 203.234375 C 73.25 202.742188 74.953125 202.734375 76.285156 202.28125 C 78.679688 202.0625 80.464844 200.421875 82.832031 200.617188 C 83.722656 199.773438 84.792969 199.394531 85.875 199.035156 C 89.3125 197.625 91.945312 196.539062 94.960938 194.628906 C 96.726562 193.816406 103.027344 188.488281 101.292969 189.035156 C 99.335938 190.0625 96.054688 192.46875 95.15625 192.609375 C 94.847656 193.113281 92.199219 192.6875 91.429688 193.054688 C 90.722656 193.125 90.789062 194.25 90.082031 194.550781 C 90.0625 194.578125 89.394531 195.367188 89.101562 195.300781 C 88.21875 196.046875 87.292969 196.101562 86.402344 196.773438 C 86.058594 196.734375 85.832031 196.507812 85.496094 196.679688 L 85.609375 196.832031 C 85.417969 196.984375 85.207031 196.792969 85.019531 196.945312 C 84.503906 197.511719 83.792969 197.601562 83.257812 197.851562 C 83.109375 197.179688 82.816406 198.09375 82.472656 197.972656 C 82.246094 197.785156 82.03125 197.898438 81.792969 198.074219 C 81.832031 198.148438 81.804688 198.207031 81.597656 198.273438 L 81.597656 198.226562 C 81.402344 198.390625 81.230469 198.539062 81.007812 198.574219 C 80.65625 198.527344 80.246094 198.894531 79.898438 198.699219 C 79.628906 198.5625 78.585938 198.515625 78.230469 198.796875 C 77.949219 199.578125 77.589844 198.863281 77.1875 199.347656 C 77.191406 199.398438 76.992188 199.359375 76.992188 199.402344 C 76.761719 199.566406 76.996094 199.460938 76.78125 199.421875 C 75.382812 199.941406 74.03125 200.253906 72.671875 200.5 C 72.671875 200.5 72.671875 200.082031 72.453125 200.273438 C 72.335938 200.273438 72.273438 200.386719 72.316406 200.535156 C 71.785156 200.648438 71.46875 200.132812 70.972656 200.542969 C 71.128906 200.300781 70.921875 200.230469 70.824219 200.101562 C 68.597656 201.238281 68.589844 200.4375 66.648438 200.921875 C 66.296875 200.796875 65.742188 201.742188 65.546875 201.21875 C 64.484375 201.207031 63.433594 201.058594 62.410156 200.777344 C 64.746094 200.421875 71.742188 198.808594 72.925781 198.355469 C 72.847656 198.535156 73.292969 198.667969 73.445312 198.4375 C 73.445312 198.339844 73.574219 198.277344 73.464844 198.242188 C 74.09375 197.949219 74.839844 197.582031 75.402344 197.507812 C 77.515625 196.460938 79.457031 195.988281 81.523438 195.179688 C 82.824219 194.222656 85.324219 193.882812 86.632812 192.832031 C 87.6875 192.523438 95.207031 188.308594 96.117188 187.71875 C 99.507812 185.371094 108.128906 180.285156 112.3125 176.308594 C 115.21875 174.078125 118.074219 171.785156 120.878906 169.429688 L 120.640625 169.167969 C 121.585938 167.652344 123.621094 166.101562 125.320312 164.441406 C 126.261719 163.265625 127.152344 162.113281 128.082031 160.875 C 128.039062 160.742188 127.972656 160.570312 128 160.492188 C 128.230469 159.824219 128.753906 159.292969 129.421875 159.054688 C 130 158.246094 130.550781 157.453125 131.125 156.605469 C 131.617188 155.429688 133.125 152.609375 134.539062 151.148438 C 135.226562 149.730469 135.144531 148.730469 136.480469 146.9375 C 137.148438 145.773438 137.3125 144.636719 137.894531 143.449219 C 137.796875 143.371094 137.695312 143.316406 137.707031 143.238281 C 137.804688 142.554688 138.203125 142.167969 138.703125 141.734375 C 139.046875 140.980469 139.40625 139.289062 139.726562 138.523438 C 139.871094 137.597656 139.910156 134.800781 140.953125 133.257812 C 145.832031 104.804688 134.496094 86.839844 144.347656 73.992188 C 145.609375 72.683594 144.433594 71.414062 143.289062 70.835938 C 143.378906 69.289062 142.65625 68.175781 142.316406 66.800781 C 142.820312 65.136719 141.1875 62.824219 143.59375 61.902344 C 143.335938 60.699219 144.578125 61.625 145.253906 61.148438 C 146.070312 60.703125 147.023438 60.558594 147.933594 60.75 C 148.640625 60.410156 147.964844 60.066406 148.230469 59.808594 C 148.265625 59.171875 149.492188 58.097656 149.984375 57.90625 C 152.191406 57.636719 157.59375 58.152344 158.890625 60.871094 C 159.953125 61.53125 159.589844 62.746094 159.824219 63.660156 C 158.953125 64.40625 162.632812 66.1875 159.351562 69.128906 C 163.339844 69.003906 167.605469 72.847656 169.378906 76.792969 C 173.269531 85.460938 174.199219 93.304688 175.480469 104.441406 "/>
<path style=" stroke:none;fill-rule:evenodd;fill:rgb(10.588235%,61.56863%,42.745098%);fill-opacity:1;" d="M 180.179688 53.332031 C 174.167969 53.9375 162.207031 54.265625 153.632812 50.582031 C 149.460938 48.726562 143.652344 45.292969 140.824219 43.039062 C 139.664062 44.136719 140.167969 45.960938 139.792969 47.398438 C 138.332031 50.484375 139.355469 51.226562 137.953125 54.289062 C 138.550781 55.429688 136.578125 58.144531 137.382812 59.265625 C 136.636719 62.144531 135.417969 65.988281 133.953125 68.925781 C 132.726562 73.585938 129.550781 77.511719 129.269531 77.761719 C 126.128906 77.53125 125.808594 74.949219 124.136719 73.335938 C 122.925781 72.605469 123.339844 70.429688 122.296875 69.566406 C 120.652344 62.285156 120.914062 59.039062 121.644531 54.585938 C 122.789062 48.679688 125.621094 42.902344 129.53125 36.550781 C 123.492188 36.511719 116.113281 34.855469 110.203125 32.65625 C 109.464844 32.179688 107.871094 31.792969 107.824219 30.5625 C 105.449219 28.601562 102.210938 28.5625 99.761719 25.796875 C 101.300781 24.523438 104.417969 24.214844 105.734375 23.035156 C 112.523438 22.359375 124.148438 26.421875 129.699219 30.253906 L 130.65625 30.457031 C 129.050781 17.625 129.480469 8.25 135.433594 0.148438 C 136.792969 -0.8125 138.171875 3.164062 138.265625 4.667969 C 139.117188 6.835938 139.871094 8.910156 140.433594 10.546875 C 140.628906 14.140625 143.671875 19.835938 142.289062 25.703125 C 148.40625 18.699219 150.5625 14.515625 167.480469 4.953125 C 170.410156 4.105469 168.140625 18.71875 165.007812 21.445312 C 164.222656 22.390625 165.84375 23.355469 164.902344 24.285156 C 164.679688 25.023438 163.296875 25.921875 164.023438 27.003906 C 161.664062 30.582031 158.234375 33.640625 156.152344 34.804688 L 154.1875 36.078125 C 159.324219 37.332031 171.53125 37.492188 180.179688 53.332031 "/>
<path style=" stroke:none;fill-rule:evenodd;fill:rgb(100%,10.196079%,0%);fill-opacity:1;" d="M 89.996094 67.566406 C 85.246094 68.167969 85.058594 66.078125 82.367188 65.65625 C 80.734375 64.03125 79.214844 62.605469 79.589844 59.714844 C 80.164062 57.609375 80.65625 56.613281 80.570312 54.808594 C 81.078125 53 82.730469 51.148438 84.324219 49.449219 C 85.238281 48.851562 86.222656 47.8125 86.355469 46.980469 C 89.355469 44.722656 91.816406 43.378906 95.035156 42.289062 C 102.644531 40.238281 103.46875 44.210938 105.445312 43.980469 C 108.417969 47.132812 108.136719 51.164062 105.953125 55.839844 C 106.058594 57.105469 104.289062 58.441406 103.546875 59.75 C 101.328125 61.320312 99.695312 63.824219 97.066406 65.183594 C 97.066406 65.183594 93.777344 67.085938 89.996094 67.566406 "/>
<path style=" stroke:none;fill-rule:evenodd;fill:rgb(12.156863%,40.000001%,67.058825%);fill-opacity:1;" d="M 88.527344 152.421875 C 86.730469 152.480469 85.433594 152.734375 83.542969 152.910156 C 82.320312 153.082031 81.082031 153.082031 79.859375 152.910156 C 79.300781 152.828125 78.730469 152.917969 78.222656 153.167969 C 77.105469 153.507812 75.644531 152.976562 74.527344 153.234375 C 74.011719 153.320312 73.367188 153.320312 72.941406 153.40625 C 72.507812 153.578125 71.996094 153.519531 71.476562 153.578125 C 57.054688 155.03125 43.402344 157.347656 26.992188 161.625 C 4.910156 166.976562 -6.644531 155.699219 4.023438 147.820312 C 17.292969 138.769531 81.007812 128.144531 129.023438 147.503906 C 130.300781 148.007812 131.542969 148.867188 128.058594 148.335938 C 126.359375 148.074219 126.269531 148.328125 125.414062 148.230469 C 125.269531 148.210938 125.089844 148.132812 124.914062 148.132812 C 124.523438 148.007812 124.054688 148.132812 123.597656 148.070312 C 123.550781 148.070312 123.550781 147.949219 123.484375 147.898438 C 123.371094 147.726562 123.199219 147.882812 123.09375 147.710938 C 122.96875 147.59375 122.636719 147.898438 122.523438 147.839844 C 122.03125 147.777344 121.550781 147.660156 121.085938 147.496094 C 120.964844 147.4375 120.792969 147.378906 120.621094 147.265625 C 120.449219 147.152344 120.285156 147.207031 120.105469 147.265625 C 119.652344 147.34375 119.191406 147.34375 118.738281 147.265625 C 118.738281 147.265625 118.617188 147.207031 118.558594 147.207031 C 117.824219 147.039062 116.847656 147.15625 116.105469 147.039062 C 115.648438 146.917969 115.183594 146.828125 114.714844 146.769531 C 112.097656 146.683594 113.566406 147.789062 115.351562 148.042969 C 115.765625 148.097656 116.925781 148.367188 118.234375 148.738281 C 119.546875 149.113281 126.078125 150.492188 120.054688 150.40625 C 118.609375 150.386719 117.191406 150.40625 115.703125 150.183594 C 115.53125 150.183594 115.300781 150.066406 115.128906 150.007812 C 114.445312 149.957031 113.8125 150.125 113.125 150.066406 C 111.867188 149.835938 110.777344 149.953125 109.746094 149.835938 C 109.746094 149.722656 109.574219 149.835938 109.632812 149.722656 C 109.347656 149.605469 109.003906 149.550781 108.714844 149.605469 C 108.355469 149.699219 107.980469 149.722656 107.613281 149.679688 C 106.417969 149.589844 104.308594 149.550781 102.90625 149.296875 C 102.816406 149.28125 101.789062 148.953125 101.703125 148.953125 C 101.019531 148.867188 100.871094 149.296875 100.1875 149.035156 C 99.609375 148.875 99.007812 148.835938 98.410156 148.921875 C 98.066406 149.003906 95.195312 148.785156 94.925781 148.777344 C 91.488281 148.695312 89.597656 148.867188 85.476562 148.867188 C 84.617188 148.867188 83.847656 148.777344 82.988281 148.949219 C 82.382812 149.121094 81.785156 148.949219 81.183594 149.121094 C 80.445312 149.28125 79.699219 149.410156 78.949219 149.511719 C 78.121094 149.621094 76.460938 150.542969 79.722656 150.625 C 79.941406 150.628906 80.457031 150.746094 80.667969 150.796875 C 81.097656 150.878906 81.484375 150.746094 81.914062 150.878906 C 81.960938 150.878906 82.082031 150.878906 82.128906 150.917969 C 82.210938 151.050781 82.382812 150.96875 82.519531 151.089844 C 83.285156 151.089844 84.019531 151.011719 84.789062 151.089844 C 86.851562 151.304688 92.175781 152.289062 88.527344 152.421875 "/>
</g>
</svg>
